<?xml version="1.0" encoding="UTF-8" standalone="no"?>
<svg
   xmlns:dc="http://purl.org/dc/elements/1.1/"
   xmlns:cc="http://creativecommons.org/ns#"
   xmlns:rdf="http://www.w3.org/1999/02/22-rdf-syntax-ns#"
   xmlns:svg="http://www.w3.org/2000/svg"
   xmlns="http://www.w3.org/2000/svg"
   xmlns:sodipodi="http://sodipodi.sourceforge.net/DTD/sodipodi-0.dtd"
   xmlns:inkscape="http://www.inkscape.org/namespaces/inkscape"
   width="33"
   height="28"
   viewBox="0 0 33 28"
   fill="none"
   version="1.1"
   id="svg6"
   sodipodi:docname="CameraIconRotated.svg"
   inkscape:version="1.0.2 (1.0.2+r75+1)">
  <metadata
     id="metadata12">
    <rdf:RDF>
      <cc:Work
         rdf:about="">
        <dc:format>image/svg+xml</dc:format>
        <dc:type
           rdf:resource="http://purl.org/dc/dcmitype/StillImage" />
        <dc:title></dc:title>
      </cc:Work>
    </rdf:RDF>
  </metadata>
  <defs
     id="defs10" />
  <sodipodi:namedview
     pagecolor="#ffffff"
     bordercolor="#666666"
     borderopacity="1"
     objecttolerance="10"
     gridtolerance="10"
     guidetolerance="10"
     inkscape:pageopacity="0"
     inkscape:pageshadow="2"
     inkscape:window-width="1920"
     inkscape:window-height="1048"
     id="namedview8"
     showgrid="false"
     inkscape:zoom="23.071429"
     inkscape:cx="16.5"
     inkscape:cy="14.936598"
     inkscape:window-x="0"
     inkscape:window-y="0"
     inkscape:window-maximized="1"
     inkscape:current-layer="svg6" />
  <g
     id="g846"
     transform="rotate(90,15.212387,13.361011)">
    <g
       id="g841">
      <path
         d="M 25.1009,21 H 5.89917 C 4.30152,21 3,19.6958 3,18.0948 V 8.217 C 3,6.6135 4.30152,5.3117 5.89917,5.3117 H 11.4785 V 4.2244 C 11.4785,2.9975 12.4764,2 13.7008,2 h 3.6009 c 1.2244,0 2.2198,0.9975 2.2198,2.2244 v 1.0848 h 5.5794 C 26.701,5.3092 28,6.6135 28,8.2145 v 9.8778 C 28,19.6958 26.6985,21 25.1009,21 Z M 5.89917,6.0599 c -1.18704,0 -2.1526,0.9675 -2.1526,2.1571 v 9.8778 c 0,1.1895 0.96556,2.1571 2.1526,2.1571 H 25.0984 c 1.187,0 2.1526,-0.9676 2.1526,-2.1571 V 8.217 c 0,-1.1896 -0.9656,-2.1571 -2.1526,-2.1571 H 18.775 V 4.2244 c 0,-0.8154 -0.662,-1.4763 -1.4733,-1.4763 h -3.6009 c -0.8138,0 -1.4757,0.6634 -1.4757,1.4763 v 1.833 H 5.89917 Z"
         fill="#5f82a6"
         id="path2" />
      <path
         d="m 15.5012,17.4358 c -2.506,0 -4.5442,-2.0423 -4.5442,-4.5536 0,-2.5112 2.0382,-4.5536 4.5442,-4.5536 2.5059,0 4.5441,2.0424 4.5441,4.5536 0,2.5113 -2.0382,4.5536 -4.5441,4.5536 z m 0,-8.3566 c -2.0929,0 -3.7976,1.7058 -3.7976,3.8055 0,2.0973 1.7022,3.8055 3.7976,3.8055 2.0953,0 3.7975,-1.7057 3.7975,-3.8055 0,-2.0997 -1.7047,-3.8055 -3.7975,-3.8055 z"
         fill="#ffffff"
         id="path4" />
    </g>
  </g>
</svg>
