<svg width="33" height="28" viewBox="0 0 33 28" fill="none" xmlns="http://www.w3.org/2000/svg">
<path d="M25.1009 21L5.89917 21C4.30152 21 3 19.6958 3 18.0948L3 8.217C3 6.6135 4.30152 5.3117 5.89917 5.3117H11.4785V4.2244C11.4785 2.9975 12.4764 2 13.7008 2H17.3017C18.5261 2 19.5215 2.9975 19.5215 4.2244V5.3092H25.1009C26.701 5.3092 28 6.6135 28 8.2145V18.0923C28 19.6958 26.6985 21 25.1009 21ZM5.89917 6.0599C4.71213 6.0599 3.74657 7.0274 3.74657 8.217L3.74657 18.0948C3.74657 19.2843 4.71213 20.2519 5.89917 20.2519H25.0984C26.2854 20.2519 27.251 19.2843 27.251 18.0948V8.217C27.251 7.0274 26.2854 6.0599 25.0984 6.0599L18.775 6.0599V4.2244C18.775 3.409 18.113 2.7481 17.3017 2.7481H13.7008C12.887 2.7481 12.2251 3.4115 12.2251 4.2244V6.0574H5.89917V6.0599Z" fill="#5F82A6"/>
<path d="M15.5012 17.4358C12.9952 17.4358 10.957 15.3935 10.957 12.8822C10.957 10.371 12.9952 8.3286 15.5012 8.3286C18.0071 8.3286 20.0453 10.371 20.0453 12.8822C20.0453 15.3935 18.0071 17.4358 15.5012 17.4358ZM15.5012 9.0792C13.4083 9.0792 11.7036 10.785 11.7036 12.8847C11.7036 14.982 13.4058 16.6902 15.5012 16.6902C17.5965 16.6902 19.2987 14.9845 19.2987 12.8847C19.2987 10.785 17.594 9.0792 15.5012 9.0792Z" fill="white"/>
</svg>
